<svg width="24" height="24" viewBox="0 0 24 24" fill="none" xmlns="http://www.w3.org/2000/svg">
<g opacity="0.5" clip-path="url(#clip0_2_273)">
<path d="M13.4069 12.0067L23.6947 1.71892C24.0917 1.33544 24.1028 0.702709 23.7193 0.305643C23.3358 -0.0914226 22.7031 -0.102433 22.306 0.281046C22.2977 0.28907 22.2895 0.297269 22.2814 0.305643L11.9935 10.5935L1.70569 0.305585C1.30863 -0.0778942 0.675896 -0.0668841 0.292417 0.330182C-0.0816925 0.717526 -0.0816925 1.33157 0.292417 1.71892L10.5802 12.0067L0.292417 22.2945C-0.0977977 22.6848 -0.0977977 23.3175 0.292417 23.7078C0.68269 24.098 1.31542 24.098 1.70569 23.7078L11.9935 13.42L22.2813 23.7078C22.6784 24.0913 23.3111 24.0803 23.6946 23.6832C24.0687 23.2959 24.0687 22.6818 23.6946 22.2945L13.4069 12.0067Z" fill="white"/>
</g>
<defs>
<clipPath id="clip0_2_273">
<rect width="24" height="24" fill="white"/>
</clipPath>
</defs>
</svg>
