<svg width="45" height="45" viewBox="0 0 45 45" fill="none" xmlns="http://www.w3.org/2000/svg">
<path d="M44.3388 9.31168C35.623 3.1665 24.0621 0.441782 22.2941 0.0466961V0C22.2941 0 22.2539 0.0135422 22.1736 0.0266177C22.0998 0.013076 22.0597 0 22.0597 0V0.0537005C20.2857 0.441746 8.73072 3.16645 0.0149146 9.31163C0.0149146 9.31163 -1.35097 39.2091 22.0597 44.9328V44.9995C22.0998 44.9865 22.1334 44.9729 22.1736 44.9664C22.2138 44.9729 22.2539 44.9865 22.2941 45V44.9332C45.698 39.2092 44.3388 9.3121 44.3388 9.3121V9.31168ZM22.2749 41.5653V41.619C22.2413 41.6055 22.2082 41.5989 22.1745 41.5919C22.1409 41.5989 22.1078 41.6055 22.0741 41.612V41.5653C2.19192 36.6916 3.35029 11.2937 3.35029 11.2937C10.7545 6.07867 20.5679 3.76254 22.0741 3.4277V3.38754C22.0741 3.38754 22.1078 3.40109 22.1745 3.40762C22.2413 3.40109 22.2749 3.38754 22.2749 3.38754V3.43424C23.7814 3.76905 33.595 6.0852 40.9988 11.3002C41.0053 11.2937 42.1569 36.6921 22.2749 41.5659V41.5653Z" fill="#737EDD"/>
<path d="M38.6583 12.5525C32.2922 8.06724 23.9044 5.99869 22.177 5.61018V5.55694C22.1233 5.5434 22.0902 5.53687 22.0902 5.53687V5.57049C22.0832 5.57702 22.0701 5.57702 22.0631 5.57702C22.0565 5.57702 22.043 5.57702 22.0365 5.57049V5.53687C22.0365 5.53687 22.0098 5.5434 21.9496 5.55694V5.61065C20.2223 6.0057 11.8413 8.06735 5.47433 12.5525C5.47433 12.5525 4.45029 35.1052 22.0966 39.4243V39.471C22.1233 39.4575 22.1503 39.4509 22.177 39.4439V10.8459C31.8169 10.9864 38.6451 14.4204 38.6451 14.4204C38.6852 13.2493 38.6581 12.5531 38.6581 12.5531L38.6583 12.5525Z" fill="#737EDD"/>
</svg>
