<svg width="48" height="48" viewBox="0 0 48 48" fill="none" xmlns="http://www.w3.org/2000/svg">
<path d="M32.2836 17.7742C31.9102 17.4008 31.4076 17.1902 30.881 17.1902C30.3545 17.1902 29.8518 17.396 29.4785 17.7742L21.1825 26.0271L18.5256 23.3512C17.7597 22.5852 16.5006 22.5757 15.7252 23.3368C14.9449 24.098 14.9353 25.357 15.7012 26.1421L19.7607 30.2302C20.1341 30.6036 20.6367 30.8143 21.1681 30.8143C21.6947 30.8143 22.1925 30.6084 22.5659 30.235L32.2745 20.5842C33.0404 19.8183 33.05 18.5593 32.2888 17.7838L32.2836 17.7742Z" fill="#737EDD"/>
<path d="M46.1093 14.6677C44.8982 11.8098 43.1652 9.24391 40.9632 7.03705C38.7564 4.83501 36.1905 3.10208 33.3326 1.89094C30.3741 0.636732 27.2338 0 23.9978 0C10.766 0.00478705 0 10.7712 0 24.0022C0 37.2332 10.766 48 23.9978 48C37.2297 48 47.9956 37.234 47.9956 24.0022C47.9956 20.7661 47.3637 17.6258 46.1095 14.6674L46.1093 14.6677ZM23.9979 44.0314C12.9544 44.0314 3.96894 35.0459 3.96894 24.0025C3.96894 12.959 12.9544 3.97349 23.9979 3.97349C35.0414 3.97349 44.0269 12.959 44.0269 24.0025C44.0269 35.0459 35.0414 44.0314 23.9979 44.0314Z" fill="#737EDD"/>
</svg>
