<svg width="24" height="24" viewBox="0 0 24 24" fill="none" xmlns="http://www.w3.org/2000/svg">
<rect x="0.999878" y="1" width="22" height="22" rx="4" stroke="#6F7478" stroke-width="2"/>
<path d="M12.4336 5H14.7689C14.7939 5.102 14.8134 5.2053 14.8272 5.30942C14.8984 6.12156 15.2699 6.87796 15.8692 7.43075C16.4684 7.98353 17.2522 8.29298 18.0674 8.29858V10.4996C17.9582 10.5351 17.8436 10.5509 17.7288 10.5463C17.1856 10.4863 16.6472 10.3888 16.1175 10.2544C15.6603 10.0784 15.2156 9.87168 14.7864 9.63553V9.92744C14.7864 11.0951 14.7864 12.2977 14.7864 13.4829C14.7922 13.9653 14.761 14.4474 14.693 14.9249C14.5905 15.7221 14.2857 16.4797 13.8074 17.1257C13.3291 17.7716 12.6933 18.2842 11.9607 18.6147C11.5302 18.773 11.0893 18.9017 10.6412 19H9.82974C9.79574 18.9839 9.76061 18.9702 9.72465 18.9591C8.90215 18.8545 8.12952 18.507 7.50554 17.9611C6.88156 17.4151 6.43458 16.6954 6.22173 15.8941C6.12373 15.5453 6.04961 15.1903 5.99988 14.8315V14.1485C6.0641 13.8274 6.1108 13.5063 6.20422 13.191C6.46734 12.3492 6.97569 11.605 7.66421 11.0538C8.35274 10.5025 9.19009 10.1693 10.0691 10.0967C10.3318 10.0559 10.5945 10.0442 10.8748 10.0209C10.8748 10.7798 10.8748 11.4804 10.8748 12.1868C10.8748 12.3561 10.7872 12.3795 10.6471 12.4204C10.1995 12.523 9.76032 12.6596 9.33349 12.829C9.00475 12.9529 8.72231 13.1753 8.5248 13.4658C8.32729 13.7563 8.22435 14.1008 8.23007 14.452C8.20531 14.8504 8.29841 15.2472 8.49776 15.5929C8.69711 15.9387 8.99387 16.218 9.351 16.3962C9.67758 16.5981 10.0569 16.6982 10.4406 16.6836C10.8243 16.6691 11.195 16.5405 11.5053 16.3144C11.7377 16.1481 11.9325 15.9348 12.0774 15.6884C12.2222 15.442 12.3137 15.168 12.346 14.8841C12.4158 14.303 12.4451 13.7178 12.4336 13.1326C12.4336 10.5405 12.4336 7.94634 12.4336 5.35029C12.4511 5.22769 12.4394 5.11676 12.4336 5Z" fill="#6F7478"/>
</svg>
