<svg width="24" height="24" viewBox="0 0 24 24" fill="none" xmlns="http://www.w3.org/2000/svg">
<rect x="1" y="1" width="22" height="22" rx="4" stroke="white" stroke-width="2"/>
<path d="M12.4337 5H14.769C14.7941 5.102 14.8135 5.2053 14.8274 5.30942C14.8985 6.12156 15.2701 6.87796 15.8693 7.43075C16.4685 7.98353 17.2523 8.29298 18.0676 8.29858V10.4996C17.9583 10.5351 17.8437 10.5509 17.7289 10.5463C17.1857 10.4863 16.6473 10.3888 16.1176 10.2544C15.6604 10.0784 15.2157 9.87168 14.7865 9.63553V9.92744C14.7865 11.0951 14.7865 12.2977 14.7865 13.4829C14.7923 13.9653 14.7611 14.4474 14.6931 14.9249C14.5907 15.7221 14.2858 16.4797 13.8075 17.1257C13.3292 17.7716 12.6934 18.2842 11.9608 18.6147C11.5303 18.773 11.0894 18.9017 10.6414 19H9.82986C9.79586 18.9839 9.76074 18.9702 9.72477 18.9591C8.90227 18.8545 8.12965 18.507 7.50567 17.9611C6.88169 17.4151 6.4347 16.6954 6.22185 15.8941C6.12386 15.5453 6.04973 15.1903 6 14.8315V14.1485C6.06422 13.8274 6.11093 13.5063 6.20434 13.191C6.46746 12.3492 6.97581 11.605 7.66434 11.0538C8.35286 10.5025 9.19022 10.1693 10.0692 10.0967C10.3319 10.0559 10.5947 10.0442 10.8749 10.0209C10.8749 10.7798 10.8749 11.4804 10.8749 12.1868C10.8749 12.3561 10.7873 12.3795 10.6472 12.4204C10.1996 12.523 9.76044 12.6596 9.33361 12.829C9.00487 12.9529 8.72243 13.1753 8.52492 13.4658C8.32741 13.7563 8.22447 14.1008 8.23019 14.452C8.20543 14.8504 8.29854 15.2472 8.49788 15.5929C8.69723 15.9387 8.99399 16.218 9.35113 16.3962C9.6777 16.5981 10.057 16.6982 10.4407 16.6836C10.8244 16.6691 11.1951 16.5405 11.5054 16.3144C11.7378 16.1481 11.9327 15.9348 12.0775 15.6884C12.2223 15.442 12.3138 15.168 12.3461 14.8841C12.4159 14.303 12.4452 13.7178 12.4337 13.1326C12.4337 10.5405 12.4337 7.94634 12.4337 5.35029C12.4512 5.22769 12.4395 5.11676 12.4337 5Z" fill="white"/>
</svg>
