<svg width="24" height="24" viewBox="0 0 24 24" fill="none" xmlns="http://www.w3.org/2000/svg">
<path d="M19.1865 0H4.81353C3.53731 0.00150424 2.31391 0.509074 1.41138 1.41138C0.50908 2.31391 0.00148532 3.53731 0 4.81353V19.1865C0.00150424 20.4627 0.509074 21.6861 1.41138 22.5886C2.31391 23.4909 3.53731 23.9985 4.81353 24H19.1865C20.4627 23.9985 21.6861 23.4909 22.5886 22.5886C23.4909 21.6861 23.9985 20.4627 24 19.1865V4.81353C23.9985 3.53731 23.4909 2.31391 22.5886 1.41138C21.6861 0.509079 20.4627 0.00148532 19.1865 0ZM22.0746 19.1865C22.0746 19.9526 21.7703 20.687 21.2288 21.2288C20.687 21.7703 19.9526 22.0746 19.1865 22.0746H4.81353C4.04744 22.0746 3.31298 21.7703 2.77122 21.2288C2.22969 20.687 1.92541 19.9526 1.92541 19.1865V4.81353C1.92541 4.04744 2.22969 3.31298 2.77122 2.77122C3.31296 2.22969 4.04744 1.92541 4.81353 1.92541H19.1865C19.9526 1.92541 20.687 2.22969 21.2288 2.77122C21.7703 3.31296 22.0746 4.04744 22.0746 4.81353V19.1865ZM11.9997 7.08442C10.696 7.08442 9.44575 7.60231 8.52386 8.52419C7.60197 9.44608 7.08409 10.6963 7.08409 12.0001C7.08409 13.3038 7.60198 14.554 8.52386 15.4759C9.44575 16.3978 10.6959 16.9157 11.9997 16.9157C13.3035 16.9157 14.5537 16.3978 15.4756 15.4759C16.3975 14.554 16.9154 13.3038 16.9154 12.0001C16.9139 10.6968 16.3953 9.4474 15.4739 8.52595C14.5524 7.6045 13.3031 7.08596 11.9998 7.08448L11.9997 7.08442ZM11.9997 14.9902C11.2068 14.9902 10.4461 14.6751 9.8854 14.1143C9.32456 13.5536 9.0095 12.7929 9.0095 11.9999C9.0095 11.207 9.32453 10.4463 9.8854 9.88562C10.446 9.32478 11.2068 9.00972 11.9997 9.00972C12.7927 9.00972 13.5534 9.32475 14.114 9.88562C14.6749 10.4462 14.9899 11.207 14.9899 11.9999C14.9889 12.7927 14.6736 13.5528 14.113 14.1132C13.5525 14.6738 12.7925 14.9891 11.9998 14.9901L11.9997 14.9902ZM20.2509 4.49061C20.2509 4.7459 20.1495 4.99088 19.969 5.17138C19.7885 5.35189 19.5435 5.45332 19.2882 5.45332H18.367C18.023 5.45332 17.7052 5.26981 17.5333 4.97197C17.3613 4.67413 17.3613 4.30709 17.5333 4.00926C17.7052 3.71143 18.023 3.52791 18.367 3.52791H19.2882C19.5435 3.52791 19.7885 3.62934 19.969 3.80984C20.1495 3.99035 20.2509 4.23533 20.2509 4.49061Z" fill="#6F7478"/>
</svg>
