<svg width="32" height="24" viewBox="0 0 32 24" fill="none" xmlns="http://www.w3.org/2000/svg">
<path d="M4.00009 0C1.80297 0 0 1.80297 0 4.00009V19.9999C0 22.197 1.80297 24 4.00009 24H27.9998C30.1969 24 31.9999 22.197 31.9999 19.9999V4.00009C31.9999 1.80297 30.1969 0 27.9998 0H4.00009ZM4.00009 2.18192H27.9998C29.0259 2.18192 29.818 2.97406 29.818 4.00009V19.9999C29.818 21.0259 29.0259 21.8181 27.9998 21.8181H4.00009C2.97406 21.8181 2.18192 21.0259 2.18192 19.9999V4.00009C2.18192 2.97406 2.97406 2.18192 4.00009 2.18192ZM13.1026 5.76143C12.5557 5.75788 12.056 6.30627 12.057 6.90921V17.0909C12.0552 17.1287 12.0552 17.1668 12.057 17.2046C12.0935 17.5802 12.3104 17.929 12.6156 18.1017C12.9204 18.2744 13.3042 18.2658 13.6025 18.0796L21.6141 12.9886C21.9301 12.7895 22.1374 12.3959 22.1374 11.9944C22.1374 11.5928 21.9301 11.1994 21.6141 11.0001L13.6025 5.90936C13.4506 5.81501 13.2768 5.76351 13.1025 5.76174L13.1026 5.76143ZM14.1367 8.8864L19.0116 11.9999L14.1367 15.102V8.8864Z" fill="white"/>
</svg>
