<svg width="64" height="40" viewBox="0 0 64 40" fill="none" xmlns="http://www.w3.org/2000/svg">
<path d="M25.1837 0.355835C23.4965 1.23962 21.6715 3.0072 20.5811 4.82068C18.9169 7.58683 18.3889 10.3759 18.9283 13.5323C19.4678 16.6887 20.7074 19.3401 22.4979 21.1191C23.3243 21.9455 24.7361 22.9211 26.0331 23.5753C26.825 23.9771 29.0747 24.792 29.3731 24.792C29.4535 24.792 29.2009 24.5395 28.8337 24.2296C27.5711 23.1851 26.4118 21.2913 26.0101 19.6155C25.7806 18.6743 25.7691 16.6772 25.9872 15.8967C26.079 15.5753 26.4463 14.6112 26.7906 13.7389C27.1464 12.8666 27.4334 11.9828 27.4334 11.7647C27.4334 11.5352 27.2842 11.0646 27.112 10.6973C26.7103 9.89386 26.7447 9.67578 27.2727 9.57248C27.8351 9.46918 29.3731 9.62987 29.8322 9.84795C30.4405 10.1234 31.4391 11.2368 31.5195 11.7073C31.6228 12.3616 31.6916 12.5108 31.8408 12.5108C32.2655 12.5108 32.5065 10.7547 32.2196 9.74465C31.9671 8.87234 31.5768 8.4247 30.2454 7.44909C27.904 5.71595 26.8824 4.53374 26.584 3.23675C26.4922 2.81208 26.3774 2.03159 26.3315 1.49213C26.2512 0.470613 26.1364 2.47955e-05 25.9527 2.47955e-05C25.8953 2.47955e-05 25.551 0.160713 25.1837 0.355835Z" fill="url(#paint0_linear_2_89)"/>
<path d="M25.1837 0.355835C23.4965 1.23962 21.6715 3.0072 20.5811 4.82068C18.9169 7.58683 18.3889 10.3759 18.9283 13.5323C19.4678 16.6887 20.7074 19.3401 22.4979 21.1191C23.3243 21.9455 24.7361 22.9211 26.0331 23.5753C26.825 23.9771 29.0747 24.792 29.3731 24.792C29.4535 24.792 29.2009 24.5395 28.8337 24.2296C27.5711 23.1851 26.4118 21.2913 26.0101 19.6155C25.7806 18.6743 25.7691 16.6772 25.9872 15.8967C26.079 15.5753 26.4463 14.6112 26.7906 13.7389C27.1464 12.8666 27.4334 11.9828 27.4334 11.7647C27.4334 11.5352 27.2842 11.0646 27.112 10.6973C26.7103 9.89386 26.7447 9.67578 27.2727 9.57248C27.8351 9.46918 29.3731 9.62987 29.8322 9.84795C30.4405 10.1234 31.4391 11.2368 31.5195 11.7073C31.6228 12.3616 31.6916 12.5108 31.8408 12.5108C32.2655 12.5108 32.5065 10.7547 32.2196 9.74465C31.9671 8.87234 31.5768 8.4247 30.2454 7.44909C27.904 5.71595 26.8824 4.53374 26.584 3.23675C26.4922 2.81208 26.3774 2.03159 26.3315 1.49213C26.2512 0.470613 26.1364 2.47955e-05 25.9527 2.47955e-05C25.8953 2.47955e-05 25.551 0.160713 25.1837 0.355835Z" fill="url(#paint1_linear_2_89)" fill-opacity="0.7"/>
<path d="M38.0496 1.1133C38.2447 1.64128 38.348 3.22521 38.2332 4.05161C38.0266 5.55519 36.9018 8.25247 35.9951 9.44616C35.7655 9.74458 35.1342 10.4332 34.5833 10.9957C32.3451 13.2223 31.2318 14.4505 31.0022 14.9096C30.4054 16.0803 29.9807 18.7661 30.1873 20.1549C30.3021 21.0043 30.4857 21.406 31.4384 23.0244C32.4829 24.769 32.5862 24.8952 33.0912 25.033C34.1357 25.3084 37.2347 24.2066 39.2892 22.8178C40.942 21.6929 42.8817 19.1563 43.7655 16.9297C45.1773 13.3945 45.0396 9.35433 43.3982 5.89953C42.3652 3.74171 40.919 2.21517 38.9449 1.2166C38.2332 0.86079 37.9348 0.826357 38.0496 1.1133Z" fill="url(#paint2_linear_2_89)"/>
<path d="M38.0496 1.1133C38.2447 1.64128 38.348 3.22521 38.2332 4.05161C38.0266 5.55519 36.9018 8.25247 35.9951 9.44616C35.7655 9.74458 35.1342 10.4332 34.5833 10.9957C32.3451 13.2223 31.2318 14.4505 31.0022 14.9096C30.4054 16.0803 29.9807 18.7661 30.1873 20.1549C30.3021 21.0043 30.4857 21.406 31.4384 23.0244C32.4829 24.769 32.5862 24.8952 33.0912 25.033C34.1357 25.3084 37.2347 24.2066 39.2892 22.8178C40.942 21.6929 42.8817 19.1563 43.7655 16.9297C45.1773 13.3945 45.0396 9.35433 43.3982 5.89953C42.3652 3.74171 40.919 2.21517 38.9449 1.2166C38.2332 0.86079 37.9348 0.826357 38.0496 1.1133Z" fill="url(#paint3_linear_2_89)" fill-opacity="0.7"/>
<path d="M34.5718 28.6484L33.975 28.9469V29.624C33.975 30.3701 34.1127 30.5423 34.9047 30.7603C36.0984 31.1047 36.8788 29.647 35.9492 28.7862C35.4786 28.3385 35.2375 28.3156 34.5718 28.6484Z" fill="url(#paint4_linear_2_89)"/>
<path d="M34.5718 28.6484L33.975 28.9469V29.624C33.975 30.3701 34.1127 30.5423 34.9047 30.7603C36.0984 31.1047 36.8788 29.647 35.9492 28.7862C35.4786 28.3385 35.2375 28.3156 34.5718 28.6484Z" fill="url(#paint5_linear_2_89)" fill-opacity="0.7"/>
<path d="M52.7412 28.4877C52.0755 28.6714 51.8689 28.9354 51.8001 29.6929L51.7312 30.393L52.4084 30.6341C53.1315 30.9095 53.4184 30.8866 53.8316 30.5308C54.0497 30.3471 54.1071 30.175 54.1071 29.7273C54.1186 29.2682 54.0612 29.1075 53.7857 28.8321C53.407 28.4189 53.2004 28.3615 52.7412 28.4877Z" fill="url(#paint6_linear_2_89)"/>
<path d="M52.7412 28.4877C52.0755 28.6714 51.8689 28.9354 51.8001 29.6929L51.7312 30.393L52.4084 30.6341C53.1315 30.9095 53.4184 30.8866 53.8316 30.5308C54.0497 30.3471 54.1071 30.175 54.1071 29.7273C54.1186 29.2682 54.0612 29.1075 53.7857 28.8321C53.407 28.4189 53.2004 28.3615 52.7412 28.4877Z" fill="url(#paint7_linear_2_89)" fill-opacity="0.7"/>
<path d="M0.115885 29.7274V30.7604H2.29666C3.58217 30.7604 4.47743 30.8063 4.47743 30.8637C4.47743 31.0703 3.67399 32.3673 1.35548 35.8565C0.976717 36.419 0.574995 37.0732 0.44874 37.3257C0.230662 37.7504 -0.090715 39.5409 0.0240627 39.6557C0.104407 39.7475 0.24214 39.7475 4.05276 39.7246L7.46165 39.7131V38.8063V37.9111L6.76151 37.8307C6.37127 37.7963 5.33827 37.7619 4.46596 37.7619C3.24931 37.7619 2.87055 37.7274 2.87055 37.6126C2.87055 37.3601 3.84616 35.7532 4.74142 34.5251C6.56639 32.023 7.2321 30.6342 7.2321 29.3601V28.6944H3.67399H0.115885V29.7274Z" fill="url(#paint8_linear_2_89)"/>
<path d="M0.115885 29.7274V30.7604H2.29666C3.58217 30.7604 4.47743 30.8063 4.47743 30.8637C4.47743 31.0703 3.67399 32.3673 1.35548 35.8565C0.976717 36.419 0.574995 37.0732 0.44874 37.3257C0.230662 37.7504 -0.090715 39.5409 0.0240627 39.6557C0.104407 39.7475 0.24214 39.7475 4.05276 39.7246L7.46165 39.7131V38.8063V37.9111L6.76151 37.8307C6.37127 37.7963 5.33827 37.7619 4.46596 37.7619C3.24931 37.7619 2.87055 37.7274 2.87055 37.6126C2.87055 37.3601 3.84616 35.7532 4.74142 34.5251C6.56639 32.023 7.2321 30.6342 7.2321 29.3601V28.6944H3.67399H0.115885V29.7274Z" fill="url(#paint9_linear_2_89)" fill-opacity="0.7"/>
<path d="M9.06873 34.1923V39.7131H10.0788H11.0773V37.3946C11.0773 35.4549 11.1118 34.9958 11.2725 34.6629C11.6742 33.8136 12.4661 33.4233 13.3729 33.6299C14.3141 33.848 14.4633 34.3415 14.4633 37.3831V39.7131H15.4389H16.4145V37.1536C16.4145 34.3875 16.3227 33.8021 15.7832 32.8839C15.6225 32.5969 15.2782 32.2182 15.0142 32.0575C14.624 31.7935 14.4288 31.7476 13.7861 31.7476C13.063 31.7476 11.6742 32.1378 11.525 32.3788C11.4905 32.4362 11.3872 32.4821 11.2954 32.4821C11.1577 32.4821 11.1347 32.1722 11.1347 30.6457V28.8093H10.8019C10.6297 28.8093 10.1591 28.7748 9.76887 28.7404L9.06873 28.66V34.1923Z" fill="url(#paint10_linear_2_89)"/>
<path d="M9.06873 34.1923V39.7131H10.0788H11.0773V37.3946C11.0773 35.4549 11.1118 34.9958 11.2725 34.6629C11.6742 33.8136 12.4661 33.4233 13.3729 33.6299C14.3141 33.848 14.4633 34.3415 14.4633 37.3831V39.7131H15.4389H16.4145V37.1536C16.4145 34.3875 16.3227 33.8021 15.7832 32.8839C15.6225 32.5969 15.2782 32.2182 15.0142 32.0575C14.624 31.7935 14.4288 31.7476 13.7861 31.7476C13.063 31.7476 11.6742 32.1378 11.525 32.3788C11.4905 32.4362 11.3872 32.4821 11.2954 32.4821C11.1577 32.4821 11.1347 32.1722 11.1347 30.6457V28.8093H10.8019C10.6297 28.8093 10.1591 28.7748 9.76887 28.7404L9.06873 28.66V34.1923Z" fill="url(#paint11_linear_2_89)" fill-opacity="0.7"/>
<path d="M56.6759 28.7748L56.125 28.8207V34.2726V39.7131H57.1465H58.1566L58.2369 38.8293C58.2713 38.3473 58.3058 37.6242 58.3058 37.2224C58.3058 36.8322 58.3517 36.4993 58.3976 36.4993C58.5927 36.4993 60.0389 38.2784 60.8309 39.4721C60.9916 39.7131 61.0949 39.7246 62.1738 39.7475C63.2527 39.7705 63.3216 39.759 63.2297 39.5639C63.1035 39.3343 61.5425 37.4405 60.9801 36.8437C60.7735 36.6256 60.5439 36.2927 60.4751 36.1206C60.28 35.6729 60.4751 35.3171 61.6114 33.9972C62.1164 33.4003 62.6903 32.6887 62.8969 32.4132L63.2527 31.9082H62.0705H60.8883L60.5095 32.4936C60.016 33.2396 58.432 35.122 58.2943 35.122C58.2369 35.122 58.191 33.7906 58.191 31.9082V28.6945L57.7089 28.7174C57.4335 28.7289 56.9744 28.7518 56.6759 28.7748Z" fill="url(#paint12_linear_2_89)"/>
<path d="M56.6759 28.7748L56.125 28.8207V34.2726V39.7131H57.1465H58.1566L58.2369 38.8293C58.2713 38.3473 58.3058 37.6242 58.3058 37.2224C58.3058 36.8322 58.3517 36.4993 58.3976 36.4993C58.5927 36.4993 60.0389 38.2784 60.8309 39.4721C60.9916 39.7131 61.0949 39.7246 62.1738 39.7475C63.2527 39.7705 63.3216 39.759 63.2297 39.5639C63.1035 39.3343 61.5425 37.4405 60.9801 36.8437C60.7735 36.6256 60.5439 36.2927 60.4751 36.1206C60.28 35.6729 60.4751 35.3171 61.6114 33.9972C62.1164 33.4003 62.6903 32.6887 62.8969 32.4132L63.2527 31.9082H62.0705H60.8883L60.5095 32.4936C60.016 33.2396 58.432 35.122 58.2943 35.122C58.2369 35.122 58.191 33.7906 58.191 31.9082V28.6945L57.7089 28.7174C57.4335 28.7289 56.9744 28.7518 56.6759 28.7748Z" fill="url(#paint13_linear_2_89)" fill-opacity="0.7"/>
<path d="M29.5569 30.0029L28.6387 30.2669L28.6042 31.0818L28.5698 31.9082H27.95H27.3187V32.8264V33.7447H27.8237C28.6042 33.7447 28.6387 33.8365 28.6042 35.9599C28.5813 37.1191 28.6272 37.9455 28.7075 38.2095C29.0519 39.2769 29.775 39.7131 31.3474 39.8049L32.3689 39.8623V38.9441V38.0259L31.577 37.9455L30.7965 37.8652L30.7161 36.6485C30.6817 35.9828 30.6473 35.0876 30.6473 34.6629V33.8824L31.0031 33.8135C31.1982 33.7791 31.5885 33.7447 31.8639 33.7447H32.3689V32.8264V31.9082H31.8639C31.5885 31.9082 31.1982 31.8738 31.0031 31.8393L30.6473 31.759V30.749C30.6473 30.1866 30.6128 29.7274 30.5669 29.7389C30.5095 29.7389 30.0619 29.8652 29.5569 30.0029Z" fill="url(#paint14_linear_2_89)"/>
<path d="M29.5569 30.0029L28.6387 30.2669L28.6042 31.0818L28.5698 31.9082H27.95H27.3187V32.8264V33.7447H27.8237C28.6042 33.7447 28.6387 33.8365 28.6042 35.9599C28.5813 37.1191 28.6272 37.9455 28.7075 38.2095C29.0519 39.2769 29.775 39.7131 31.3474 39.8049L32.3689 39.8623V38.9441V38.0259L31.577 37.9455L30.7965 37.8652L30.7161 36.6485C30.6817 35.9828 30.6473 35.0876 30.6473 34.6629V33.8824L31.0031 33.8135C31.1982 33.7791 31.5885 33.7447 31.8639 33.7447H32.3689V32.8264V31.9082H31.8639C31.5885 31.9082 31.1982 31.8738 31.0031 31.8393L30.6473 31.759V30.749C30.6473 30.1866 30.6128 29.7274 30.5669 29.7389C30.5095 29.7389 30.0619 29.8652 29.5569 30.0029Z" fill="url(#paint15_linear_2_89)" fill-opacity="0.7"/>
<path d="M47.3456 30.0029L46.4274 30.244L46.393 31.0704L46.3585 31.9082H45.6699H44.9812L45.0156 32.792L45.0501 33.6873L45.5666 33.7217C45.842 33.7447 46.1405 33.8135 46.2208 33.8824C46.3356 33.9742 46.37 34.5137 46.37 35.9255C46.37 36.9814 46.4044 38.0144 46.4389 38.221C46.5537 38.749 47.2423 39.4262 47.8621 39.6098C48.1491 39.6902 48.7689 39.759 49.2395 39.759L50.1003 39.7705L50.1347 38.8867L50.1691 38.0029L49.3772 37.9226L48.5737 37.8537L48.5049 37.3257C48.4704 37.0503 48.436 36.155 48.436 35.3516C48.436 33.6758 48.3901 33.7447 49.5608 33.7447H50.1577V32.8265V31.9082H49.733C49.492 31.9082 49.1017 31.8738 48.8722 31.8394L48.436 31.759V30.8064C48.436 30.2899 48.4016 29.8308 48.3557 29.8078C48.2983 29.7849 47.8506 29.8652 47.3456 30.0029Z" fill="url(#paint16_linear_2_89)"/>
<path d="M47.3456 30.0029L46.4274 30.244L46.393 31.0704L46.3585 31.9082H45.6699H44.9812L45.0156 32.792L45.0501 33.6873L45.5666 33.7217C45.842 33.7447 46.1405 33.8135 46.2208 33.8824C46.3356 33.9742 46.37 34.5137 46.37 35.9255C46.37 36.9814 46.4044 38.0144 46.4389 38.221C46.5537 38.749 47.2423 39.4262 47.8621 39.6098C48.1491 39.6902 48.7689 39.759 49.2395 39.759L50.1003 39.7705L50.1347 38.8867L50.1691 38.0029L49.3772 37.9226L48.5737 37.8537L48.5049 37.3257C48.4704 37.0503 48.436 36.155 48.436 35.3516C48.436 33.6758 48.3901 33.7447 49.5608 33.7447H50.1577V32.8265V31.9082H49.733C49.492 31.9082 49.1017 31.8738 48.8722 31.8394L48.436 31.759V30.8064C48.436 30.2899 48.4016 29.8308 48.3557 29.8078C48.2983 29.7849 47.8506 29.8652 47.3456 30.0029Z" fill="url(#paint17_linear_2_89)" fill-opacity="0.7"/>
<path d="M20.8098 31.8967C19.6735 32.2869 18.9045 33.0215 18.3306 34.2841C18.147 34.6973 18.0896 35.0646 18.0781 35.7532C18.0781 36.5681 18.124 36.7633 18.4454 37.429C18.916 38.3702 19.7194 39.1506 20.7524 39.6327C21.4411 39.9656 21.6248 40 22.5545 40C23.4153 39.9885 23.6793 39.9426 24.104 39.7245C24.7582 39.3802 25.7108 38.5768 25.7108 38.3702C25.7108 38.2898 25.4928 38.0603 25.2288 37.8651C24.7008 37.4978 24.2646 37.4749 23.8859 37.8077C23.6563 38.0029 22.9103 38.2209 22.4397 38.2209C21.4985 38.2209 20.3737 37.4864 20.454 36.9354L20.4885 36.6714H23.1283C26.3306 36.6714 26.3306 36.6714 26.2273 35.7188C26.0552 34.1578 25.5501 33.1363 24.586 32.4017C23.6448 31.6901 22.0265 31.472 20.8098 31.8967ZM23.3579 33.7331C23.7481 33.9627 24.2187 34.594 24.2187 34.9039C24.2187 35.1105 24.0925 35.122 22.2675 35.122C20.1326 35.122 20.1326 35.122 20.477 34.4562C20.9476 33.538 22.3823 33.1822 23.3579 33.7331Z" fill="url(#paint18_linear_2_89)"/>
<path d="M20.8098 31.8967C19.6735 32.2869 18.9045 33.0215 18.3306 34.2841C18.147 34.6973 18.0896 35.0646 18.0781 35.7532C18.0781 36.5681 18.124 36.7633 18.4454 37.429C18.916 38.3702 19.7194 39.1506 20.7524 39.6327C21.4411 39.9656 21.6248 40 22.5545 40C23.4153 39.9885 23.6793 39.9426 24.104 39.7245C24.7582 39.3802 25.7108 38.5768 25.7108 38.3702C25.7108 38.2898 25.4928 38.0603 25.2288 37.8651C24.7008 37.4978 24.2646 37.4749 23.8859 37.8077C23.6563 38.0029 22.9103 38.2209 22.4397 38.2209C21.4985 38.2209 20.3737 37.4864 20.454 36.9354L20.4885 36.6714H23.1283C26.3306 36.6714 26.3306 36.6714 26.2273 35.7188C26.0552 34.1578 25.5501 33.1363 24.586 32.4017C23.6448 31.6901 22.0265 31.472 20.8098 31.8967ZM23.3579 33.7331C23.7481 33.9627 24.2187 34.594 24.2187 34.9039C24.2187 35.1105 24.0925 35.122 22.2675 35.122C20.1326 35.122 20.1326 35.122 20.477 34.4562C20.9476 33.538 22.3823 33.1822 23.3579 33.7331Z" fill="url(#paint19_linear_2_89)" fill-opacity="0.7"/>
<path d="M39.7812 31.8163C38.4498 32.1836 37.5201 34.2496 38.2432 35.1908C38.6564 35.7302 38.8745 35.8565 40.5043 36.5452C41.9849 37.1764 42.3752 37.6815 41.6636 38.0487C41.0208 38.3816 40.5158 38.2668 39.7009 37.6355C39.4713 37.4519 39.2303 37.3027 39.1614 37.3027C39.0696 37.3027 37.9448 38.0028 37.7726 38.175C37.6693 38.2668 38.3809 39.1506 38.7253 39.3572C39.8845 40.0574 41.698 40.1377 42.7999 39.5409C43.1212 39.3572 43.523 39.0358 43.7066 38.8063C43.9821 38.439 44.0165 38.2898 44.0165 37.5208C44.0165 36.7862 43.9706 36.5911 43.741 36.2467C43.4197 35.7761 42.7999 35.4433 41.7669 35.1793C40.6765 34.8924 40.0681 34.5251 40.0567 34.1348C40.0567 33.9282 40.642 33.4002 40.8831 33.4002C41.0093 33.4002 41.411 33.5609 41.7783 33.7561L42.444 34.1119L43.1442 33.7561L43.8443 33.4002L43.6836 33.0789C43.2704 32.2869 42.3178 31.7819 41.1011 31.7245C40.6191 31.7015 40.0222 31.7475 39.7812 31.8163Z" fill="url(#paint20_linear_2_89)"/>
<path d="M39.7812 31.8163C38.4498 32.1836 37.5201 34.2496 38.2432 35.1908C38.6564 35.7302 38.8745 35.8565 40.5043 36.5452C41.9849 37.1764 42.3752 37.6815 41.6636 38.0487C41.0208 38.3816 40.5158 38.2668 39.7009 37.6355C39.4713 37.4519 39.2303 37.3027 39.1614 37.3027C39.0696 37.3027 37.9448 38.0028 37.7726 38.175C37.6693 38.2668 38.3809 39.1506 38.7253 39.3572C39.8845 40.0574 41.698 40.1377 42.7999 39.5409C43.1212 39.3572 43.523 39.0358 43.7066 38.8063C43.9821 38.439 44.0165 38.2898 44.0165 37.5208C44.0165 36.7862 43.9706 36.5911 43.741 36.2467C43.4197 35.7761 42.7999 35.4433 41.7669 35.1793C40.6765 34.8924 40.0681 34.5251 40.0567 34.1348C40.0567 33.9282 40.642 33.4002 40.8831 33.4002C41.0093 33.4002 41.411 33.5609 41.7783 33.7561L42.444 34.1119L43.1442 33.7561L43.8443 33.4002L43.6836 33.0789C43.2704 32.2869 42.3178 31.7819 41.1011 31.7245C40.6191 31.7015 40.0222 31.7475 39.7812 31.8163Z" fill="url(#paint21_linear_2_89)" fill-opacity="0.7"/>
<path d="M52.4299 31.8738L51.9938 31.9197V35.8221V39.7131L52.5677 39.7245C52.889 39.736 53.2449 39.736 53.3711 39.736C53.9794 39.736 53.945 40.0115 53.945 35.8221V31.9426L53.5203 31.8623C53.2793 31.8278 53.0383 31.8049 52.9694 31.8164C52.912 31.8278 52.6595 31.8508 52.4299 31.8738Z" fill="url(#paint22_linear_2_89)"/>
<path d="M52.4299 31.8738L51.9938 31.9197V35.8221V39.7131L52.5677 39.7245C52.889 39.736 53.2449 39.736 53.3711 39.736C53.9794 39.736 53.945 40.0115 53.945 35.8221V31.9426L53.5203 31.8623C53.2793 31.8278 53.0383 31.8049 52.9694 31.8164C52.912 31.8278 52.6595 31.8508 52.4299 31.8738Z" fill="url(#paint23_linear_2_89)" fill-opacity="0.7"/>
<path d="M34.0906 35.7991C34.0906 39.2883 34.1135 39.7015 34.2742 39.736C34.3775 39.7589 34.8366 39.7589 35.3072 39.736L36.1566 39.69V35.7991V31.9081H35.1236H34.0906V35.7991Z" fill="url(#paint24_linear_2_89)"/>
<path d="M34.0906 35.7991C34.0906 39.2883 34.1135 39.7015 34.2742 39.736C34.3775 39.7589 34.8366 39.7589 35.3072 39.736L36.1566 39.69V35.7991V31.9081H35.1236H34.0906V35.7991Z" fill="url(#paint25_linear_2_89)" fill-opacity="0.7"/>
<defs>
<linearGradient id="paint0_linear_2_89" x1="16.3365" y1="29.2191" x2="35.7118" y2="28.4783" gradientUnits="userSpaceOnUse">
<stop stop-color="#FCF1B5"/>
<stop offset="0.9375" stop-color="#FFBF31"/>
</linearGradient>
<linearGradient id="paint1_linear_2_89" x1="23.1463" y1="59.8549" x2="50.7811" y2="53.3812" gradientUnits="userSpaceOnUse">
<stop offset="0.0252352" stop-color="white" stop-opacity="0.1"/>
<stop offset="0.448382" stop-color="#C06500" stop-opacity="0.7"/>
<stop offset="0.763925" stop-color="#E47B00" stop-opacity="0.3"/>
<stop offset="1" stop-color="white" stop-opacity="0"/>
</linearGradient>
<linearGradient id="paint2_linear_2_89" x1="27.5739" y1="29.3887" x2="48.3379" y2="28.5151" gradientUnits="userSpaceOnUse">
<stop stop-color="#FCF1B5"/>
<stop offset="0.9375" stop-color="#FFBF31"/>
</linearGradient>
<linearGradient id="paint3_linear_2_89" x1="34.874" y1="59.2365" x2="64.1774" y2="51.6834" gradientUnits="userSpaceOnUse">
<stop offset="0.0252352" stop-color="white" stop-opacity="0.1"/>
<stop offset="0.448382" stop-color="#C06500" stop-opacity="0.7"/>
<stop offset="0.763925" stop-color="#E47B00" stop-opacity="0.3"/>
<stop offset="1" stop-color="white" stop-opacity="0"/>
</linearGradient>
<linearGradient id="paint4_linear_2_89" x1="33.5568" y1="31.2389" x2="36.9375" y2="31.0042" gradientUnits="userSpaceOnUse">
<stop stop-color="#FCF1B5"/>
<stop offset="0.9375" stop-color="#FFBF31"/>
</linearGradient>
<linearGradient id="paint5_linear_2_89" x1="34.749" y1="34.1929" x2="39.0708" y2="32.3547" gradientUnits="userSpaceOnUse">
<stop offset="0.0252352" stop-color="white" stop-opacity="0.1"/>
<stop offset="0.448382" stop-color="#C06500" stop-opacity="0.7"/>
<stop offset="0.763925" stop-color="#E47B00" stop-opacity="0.3"/>
<stop offset="1" stop-color="white" stop-opacity="0"/>
</linearGradient>
<linearGradient id="paint6_linear_2_89" x1="51.3143" y1="31.2489" x2="54.685" y2="31.0158" gradientUnits="userSpaceOnUse">
<stop stop-color="#FCF1B5"/>
<stop offset="0.9375" stop-color="#FFBF31"/>
</linearGradient>
<linearGradient id="paint7_linear_2_89" x1="52.5029" y1="34.2062" x2="56.8171" y2="32.3788" gradientUnits="userSpaceOnUse">
<stop offset="0.0252352" stop-color="white" stop-opacity="0.1"/>
<stop offset="0.448382" stop-color="#C06500" stop-opacity="0.7"/>
<stop offset="0.763925" stop-color="#E47B00" stop-opacity="0.3"/>
<stop offset="1" stop-color="white" stop-opacity="0"/>
</linearGradient>
<linearGradient id="paint8_linear_2_89" x1="-1.30857" y1="41.7092" x2="9.29847" y2="41.2104" gradientUnits="userSpaceOnUse">
<stop stop-color="#FCF1B5"/>
<stop offset="0.9375" stop-color="#FFBF31"/>
</linearGradient>
<linearGradient id="paint9_linear_2_89" x1="2.42225" y1="55.3551" x2="17.1689" y2="51.1061" gradientUnits="userSpaceOnUse">
<stop offset="0.0252352" stop-color="white" stop-opacity="0.1"/>
<stop offset="0.448382" stop-color="#C06500" stop-opacity="0.7"/>
<stop offset="0.763925" stop-color="#E47B00" stop-opacity="0.3"/>
<stop offset="1" stop-color="white" stop-opacity="0"/>
</linearGradient>
<linearGradient id="paint10_linear_2_89" x1="7.78048" y1="41.6869" x2="18.2235" y2="41.2038" gradientUnits="userSpaceOnUse">
<stop stop-color="#FCF1B5"/>
<stop offset="0.9375" stop-color="#FFBF31"/>
</linearGradient>
<linearGradient id="paint11_linear_2_89" x1="11.4534" y1="55.3454" x2="26.0073" y2="51.2208" gradientUnits="userSpaceOnUse">
<stop offset="0.0252352" stop-color="white" stop-opacity="0.1"/>
<stop offset="0.448382" stop-color="#C06500" stop-opacity="0.7"/>
<stop offset="0.763925" stop-color="#E47B00" stop-opacity="0.3"/>
<stop offset="1" stop-color="white" stop-opacity="0"/>
</linearGradient>
<linearGradient id="paint12_linear_2_89" x1="54.8739" y1="41.7314" x2="65.017" y2="41.2761" gradientUnits="userSpaceOnUse">
<stop stop-color="#FCF1B5"/>
<stop offset="0.9375" stop-color="#FFBF31"/>
</linearGradient>
<linearGradient id="paint13_linear_2_89" x1="58.4408" y1="55.4004" x2="72.6365" y2="51.4965" gradientUnits="userSpaceOnUse">
<stop offset="0.0252352" stop-color="white" stop-opacity="0.1"/>
<stop offset="0.448382" stop-color="#C06500" stop-opacity="0.7"/>
<stop offset="0.763925" stop-color="#E47B00" stop-opacity="0.3"/>
<stop offset="1" stop-color="white" stop-opacity="0"/>
</linearGradient>
<linearGradient id="paint14_linear_2_89" x1="26.4331" y1="41.6701" x2="33.6194" y2="41.4206" gradientUnits="userSpaceOnUse">
<stop stop-color="#FCF1B5"/>
<stop offset="0.9375" stop-color="#FFBF31"/>
</linearGradient>
<linearGradient id="paint15_linear_2_89" x1="28.9582" y1="54.18" x2="39.2997" y2="51.9801" gradientUnits="userSpaceOnUse">
<stop offset="0.0252352" stop-color="white" stop-opacity="0.1"/>
<stop offset="0.448382" stop-color="#C06500" stop-opacity="0.7"/>
<stop offset="0.763925" stop-color="#E47B00" stop-opacity="0.3"/>
<stop offset="1" stop-color="white" stop-opacity="0"/>
</linearGradient>
<linearGradient id="paint16_linear_2_89" x1="44.0714" y1="41.5503" x2="51.4529" y2="41.2828" gradientUnits="userSpaceOnUse">
<stop stop-color="#FCF1B5"/>
<stop offset="0.9375" stop-color="#FFBF31"/>
</linearGradient>
<linearGradient id="paint17_linear_2_89" x1="46.6653" y1="53.8661" x2="57.2482" y2="51.5171" gradientUnits="userSpaceOnUse">
<stop offset="0.0252352" stop-color="white" stop-opacity="0.1"/>
<stop offset="0.448382" stop-color="#C06500" stop-opacity="0.7"/>
<stop offset="0.763925" stop-color="#E47B00" stop-opacity="0.3"/>
<stop offset="1" stop-color="white" stop-opacity="0"/>
</linearGradient>
<linearGradient id="paint18_linear_2_89" x1="16.6439" y1="41.4856" x2="28.241" y2="40.6921" gradientUnits="userSpaceOnUse">
<stop stop-color="#FCF1B5"/>
<stop offset="0.9375" stop-color="#FFBF31"/>
</linearGradient>
<linearGradient id="paint19_linear_2_89" x1="20.733" y1="51.7661" x2="35.6216" y2="45.525" gradientUnits="userSpaceOnUse">
<stop offset="0.0252352" stop-color="white" stop-opacity="0.1"/>
<stop offset="0.448382" stop-color="#C06500" stop-opacity="0.7"/>
<stop offset="0.763925" stop-color="#E47B00" stop-opacity="0.3"/>
<stop offset="1" stop-color="white" stop-opacity="0"/>
</linearGradient>
<linearGradient id="paint20_linear_2_89" x1="36.6657" y1="41.4086" x2="45.5508" y2="40.9382" gradientUnits="userSpaceOnUse">
<stop stop-color="#FCF1B5"/>
<stop offset="0.9375" stop-color="#FFBF31"/>
</linearGradient>
<linearGradient id="paint21_linear_2_89" x1="39.7927" y1="51.5686" x2="51.9045" y2="47.6399" gradientUnits="userSpaceOnUse">
<stop offset="0.0252352" stop-color="white" stop-opacity="0.1"/>
<stop offset="0.448382" stop-color="#C06500" stop-opacity="0.7"/>
<stop offset="0.763925" stop-color="#E47B00" stop-opacity="0.3"/>
<stop offset="1" stop-color="white" stop-opacity="0"/>
</linearGradient>
<linearGradient id="paint22_linear_2_89" x1="51.6515" y1="41.1552" x2="54.4311" y2="41.1075" gradientUnits="userSpaceOnUse">
<stop stop-color="#FCF1B5"/>
<stop offset="0.9375" stop-color="#FFBF31"/>
</linearGradient>
<linearGradient id="paint23_linear_2_89" x1="52.6273" y1="50.9499" x2="56.7589" y2="50.5161" gradientUnits="userSpaceOnUse">
<stop offset="0.0252352" stop-color="white" stop-opacity="0.1"/>
<stop offset="0.448382" stop-color="#C06500" stop-opacity="0.7"/>
<stop offset="0.763925" stop-color="#E47B00" stop-opacity="0.3"/>
<stop offset="1" stop-color="white" stop-opacity="0"/>
</linearGradient>
<linearGradient id="paint24_linear_2_89" x1="33.7283" y1="41.1541" x2="36.6707" y2="41.1001" gradientUnits="userSpaceOnUse">
<stop stop-color="#FCF1B5"/>
<stop offset="0.9375" stop-color="#FFBF31"/>
</linearGradient>
<linearGradient id="paint25_linear_2_89" x1="34.7613" y1="50.8483" x2="39.1282" y2="50.3579" gradientUnits="userSpaceOnUse">
<stop offset="0.0252352" stop-color="white" stop-opacity="0.1"/>
<stop offset="0.448382" stop-color="#C06500" stop-opacity="0.7"/>
<stop offset="0.763925" stop-color="#E47B00" stop-opacity="0.3"/>
<stop offset="1" stop-color="white" stop-opacity="0"/>
</linearGradient>
</defs>
</svg>
